<svg width="330" height="58" viewBox="0 0 330 58" fill="none" xmlns="http://www.w3.org/2000/svg">
<path d="M130.405 39.3917C129.178 39.3917 128.688 39.5125 127.829 39.9958L128.81 37.8208H139.361L138.379 39.9958C138.011 39.6333 137.643 39.3917 136.784 39.3917H134.944V47.4875C134.944 48.3333 135.067 48.575 135.435 49.0583H131.755C132.123 48.575 132.245 48.2125 132.245 47.4875V39.3917H130.405V39.3917ZM219.959 37.8208C223.517 37.8208 225.234 39.15 225.234 41.6875C225.234 44.225 223.271 45.7958 219.959 45.7958H218.61V47.6083C218.61 48.4542 218.732 48.6958 219.1 49.1792H215.297C215.665 48.6958 215.788 48.3333 215.788 47.6083V39.3917C215.788 38.5458 215.665 38.3042 215.297 37.8208H219.959V37.8208ZM218.61 39.2708V44.3458H219.468C221.309 44.3458 222.29 43.5 222.29 41.6875C222.29 39.9958 221.431 39.2708 219.468 39.2708H218.61ZM153.1 43.3792C153.1 40.2375 155.431 37.5792 158.989 37.5792C162.669 37.5792 164.877 40.3583 164.877 43.3792C164.877 46.5208 162.546 49.1792 158.989 49.1792C155.431 49.1792 153.1 46.5208 153.1 43.3792V43.3792ZM156.045 43.3792C156.045 46.7625 157.517 47.7292 158.989 47.7292C160.584 47.7292 161.933 46.7625 161.933 43.3792C161.933 39.875 160.338 39.0292 158.989 39.0292C157.517 39.15 156.045 39.9958 156.045 43.3792ZM226.461 43.3792C226.461 40.2375 228.792 37.5792 232.472 37.5792C236.152 37.5792 238.483 40.3583 238.483 43.3792C238.483 46.5208 236.152 49.1792 232.472 49.1792C228.792 49.3 226.461 46.5208 226.461 43.3792ZM229.405 43.3792C229.405 46.7625 230.877 47.7292 232.349 47.7292C233.944 47.7292 235.294 46.7625 235.294 43.3792C235.294 39.875 233.699 39.0292 232.349 39.0292C230.877 39.15 229.405 39.9958 229.405 43.3792ZM169.416 43.9833V47.4875H172.974C174.078 47.4875 174.569 47.2458 175.182 46.6417L174.323 49.0583H166.227C166.595 48.575 166.717 48.3333 166.717 47.4875V39.3917C166.717 38.5458 166.595 38.3042 166.227 37.8208H174.814L173.833 39.9958C173.465 39.6333 173.097 39.3917 172.238 39.3917H169.416V42.4125H173.587L172.606 44.5875C172.238 44.225 171.87 43.9833 171.011 43.9833H169.416V43.9833ZM95.3197 43.9833V47.4875H98.8773C99.9814 47.4875 100.472 47.2458 101.085 46.6417L100.227 49.0583H92.0074C92.3755 48.575 92.4981 48.2125 92.4981 47.4875V39.3917C92.4981 38.5458 92.3755 38.3042 92.0074 37.8208H100.595L99.7361 39.875C99.368 39.5125 99 39.2708 98.1413 39.2708H95.3197V42.2917H99.368L98.3866 44.4667C98.0186 44.1042 97.6506 43.8625 96.7918 43.8625L95.3197 43.9833V43.9833ZM85.6283 37.8208C89.0632 37.8208 90.9033 39.15 90.9033 41.5667C90.9033 43.9833 88.9405 45.675 85.6283 45.675H84.2788V47.4875C84.2788 48.3333 84.4015 48.575 84.7695 49.0583H81.0892C81.4572 48.575 81.5799 48.2125 81.5799 47.4875V39.3917C81.5799 38.5458 81.4572 38.3042 81.0892 37.8208H85.6283V37.8208ZM84.2788 39.2708V44.3458H85.1375C86.9777 44.3458 87.9591 43.5 87.9591 41.6875C87.9591 39.9958 87.1004 39.2708 85.1375 39.2708H84.2788ZM202.171 44.225H199.963V47.4875C199.963 48.3333 200.085 48.575 200.454 49.0583H196.773C197.141 48.575 197.264 48.2125 197.264 47.4875V39.3917C197.264 38.5458 197.141 38.3042 196.773 37.8208H200.454C200.085 38.3042 199.963 38.6667 199.963 39.3917V42.6542H202.171C202.539 39.875 204.747 37.5792 208.059 37.5792C211.74 37.5792 214.071 40.3583 214.071 43.3792C214.071 46.5208 211.74 49.1792 208.059 49.1792C204.747 49.3 202.539 47.0042 202.171 44.225ZM205.115 43.3792C205.115 46.7625 206.587 47.7292 208.059 47.7292C209.654 47.7292 211.004 46.7625 211.004 43.3792C211.004 39.875 209.409 39.0292 208.059 39.0292C206.465 39.15 205.115 39.9958 205.115 43.3792ZM71.1524 43.2583L75.2007 39.2708C75.9368 38.5458 75.9368 38.3042 75.9368 37.7H79.6171C78.7584 38.3042 78.145 38.7875 77.5316 39.3917L74.0967 42.775L77.8996 47.2458C78.7584 48.2125 79.1264 48.575 79.9851 49.0583H75.3234C75.3234 48.575 75.3234 48.2125 74.8327 47.7292L71.1524 43.5V47.4875C71.1524 48.3333 71.2751 48.575 71.6431 49.0583H67.9628C68.3309 48.575 68.4535 48.2125 68.4535 47.4875V39.3917C68.4535 38.5458 68.3309 38.3042 67.9628 37.8208H71.6431C71.2751 38.3042 71.1524 38.6667 71.1524 39.3917V43.2583ZM123.535 39.3917C123.535 38.5458 123.413 38.3042 123.045 37.8208H126.725C126.357 38.3042 126.234 38.6667 126.234 39.3917V47.4875C126.234 48.3333 126.357 48.575 126.725 49.0583H123.045C123.413 48.575 123.535 48.2125 123.535 47.4875V42.05L118.628 47.2458V47.6083C118.628 48.4542 118.751 48.6958 119.119 49.1792H115.439C115.807 48.6958 115.929 48.3333 115.929 47.6083V39.5125C115.929 38.6667 115.807 38.425 115.439 37.9417H119.119C118.751 38.425 118.628 38.7875 118.628 39.5125V44.95L123.535 39.7542V39.3917ZM148.807 43.9833H143.654V47.4875C143.654 48.3333 143.777 48.575 144.145 49.0583H140.465C140.833 48.575 140.955 48.3333 140.955 47.4875V39.3917C140.955 38.5458 140.833 38.3042 140.465 37.8208H144.145C143.777 38.3042 143.654 38.6667 143.654 39.3917V42.5333H148.807V39.3917C148.807 38.5458 148.684 38.3042 148.316 37.8208H151.996C151.628 38.3042 151.506 38.6667 151.506 39.3917V47.4875C151.506 48.3333 151.628 48.575 151.996 49.0583H148.316C148.684 48.575 148.807 48.3333 148.807 47.4875V43.9833ZM104.03 39.6333C104.03 38.7875 103.907 38.425 103.539 37.9417H113.108C112.74 38.425 112.617 38.7875 112.617 39.6333V47.4875C112.617 48.4542 113.108 49.1792 114.212 49.5417V51.5958C112.862 50.6292 111.758 50.2667 110.532 50.2667H104.888C103.662 50.2667 102.558 50.6292 101.331 51.5958V49.5417C103.662 48.575 104.03 47.0042 104.03 44.7083V39.6333V39.6333ZM105.87 44.7083C105.87 46.5208 105.625 47.7292 104.888 48.6958H108.937C109.428 48.6958 109.55 48.3333 109.55 48.0917V39.5125H106.483C105.993 39.5125 105.87 39.875 105.87 40.1167V44.7083V44.7083ZM190.517 42.1708H189.413V39.0292H192.234C193.093 39.0292 193.461 39.15 193.829 39.5125L194.688 37.7H186.223C186.591 38.1833 186.714 38.5458 186.714 39.2708V47.3667C186.714 48.2125 186.591 48.4542 186.223 48.9375H190.517C193.216 48.9375 195.301 48.0917 195.301 45.5542C195.301 43.1375 193.338 42.1708 190.517 42.1708ZM190.271 47.7292H189.413V43.5H190.271C191.743 43.5 192.602 44.1042 192.602 45.5542C192.725 47.125 191.743 47.7292 190.271 47.7292V47.7292ZM68.3309 12.5667C68.3309 11.4792 68.2082 10.9958 67.7175 10.3917H74.71C79.7398 10.3917 82.5613 12.5667 82.5613 16.4333C82.5613 20.4208 79.6171 22.8375 74.71 22.8375H72.2565V26.2208C72.2565 27.3083 72.3792 27.7917 72.8699 28.3958H67.7175C68.2082 27.7917 68.3309 27.3083 68.3309 26.2208V12.5667V12.5667ZM74.0967 12.5667H72.3792V20.6625H74.2193C77.0409 20.6625 78.513 19.2125 78.513 16.5542C78.3903 14.0167 77.0409 12.5667 74.0967 12.5667V12.5667ZM90.7807 28.1542L85.0149 15.4667C84.4015 14.2583 83.9108 13.4125 83.2974 12.8083H88.9405C88.5725 13.5333 88.6952 14.5 88.9405 15.225L92.4981 23.4417L95.6877 15.1042C95.9331 14.3792 96.1784 13.4125 95.8104 12.6875H99.8587C99.2454 13.2917 98.8773 13.8958 98.5093 14.9833L93.9703 26.4625C92.7435 29.6042 91.2714 32.3833 87.4684 32.3833C85.7509 32.3833 84.4015 31.9 83.1747 30.8125L84.2788 28.6375C85.0149 29.725 85.9963 30.45 87.5911 30.45C88.9405 30.5708 90.0446 29.725 90.7807 28.1542V28.1542ZM107.587 28.7583C103.294 28.7583 99.9814 26.1 99.9814 20.7833C99.9814 16.1917 103.416 12.6875 108.569 12.6875C110.654 12.6875 111.881 13.1708 112.985 13.1708C113.476 13.1708 113.844 13.05 114.457 12.8083L112.862 16.1917C112.004 15.3458 110.777 14.5 108.814 14.5C105.747 14.5 103.907 16.9167 103.907 20.7833C103.907 24.4083 105.257 26.7042 108.446 26.7042C110.654 26.7042 112.494 25.6167 113.599 24.2875L114.335 25.9792C112.494 27.7917 110.777 28.7583 107.587 28.7583ZM122.799 28.7583C118.506 28.7583 115.193 26.1 115.193 20.7833C115.193 16.1917 118.628 12.6875 123.781 12.6875C125.866 12.6875 127.093 13.1708 128.197 13.1708C128.688 13.1708 129.056 13.05 129.669 12.8083L128.197 16.3125C127.338 15.4667 126.112 14.6208 124.149 14.6208C121.082 14.6208 119.242 17.0375 119.242 20.9042C119.242 24.5292 120.591 26.825 123.781 26.825C125.989 26.825 127.829 25.7375 128.933 24.4083L129.669 26.1C127.829 27.7917 125.989 28.7583 122.799 28.7583ZM135.803 20.5417L141.323 14.9833C142.305 14.0167 142.428 13.6542 142.428 12.9292H147.335C146.108 13.6542 145.372 14.3792 144.513 15.225L139.729 19.8167L144.881 25.9792C145.985 27.3083 146.599 27.7917 147.703 28.3958H141.446C141.446 27.6708 141.323 27.3083 140.71 26.5833L135.803 20.7833V26.3417C135.803 27.4292 135.926 27.9125 136.416 28.5167H131.387C131.877 27.9125 132 27.4292 132 26.3417V15.225C132 14.1375 131.877 13.6542 131.387 13.05H136.416C135.926 13.6542 135.803 14.1375 135.803 15.225V20.5417V20.5417ZM160.216 15.1042C160.216 14.0167 160.093 13.5333 159.602 12.9292H164.632C164.141 13.5333 164.019 14.0167 164.019 15.1042V26.2208C164.019 27.3083 164.141 27.7917 164.632 28.3958H159.602C160.093 27.7917 160.216 27.3083 160.216 26.2208V18.6083L153.346 25.7375V26.2208C153.346 27.3083 153.468 27.7917 153.959 28.3958H148.929C149.42 27.7917 149.543 27.3083 149.543 26.2208V15.1042C149.543 14.0167 149.42 13.5333 148.929 12.9292H153.959C153.468 13.5333 153.346 14.0167 153.346 15.1042V22.7167L160.216 15.5875V15.1042V15.1042ZM178.862 15.1042C178.862 14.0167 178.74 13.5333 178.249 12.9292H183.279C182.788 13.5333 182.665 14.0167 182.665 15.1042V26.2208C182.665 27.3083 182.788 27.7917 183.279 28.3958H178.249C178.74 27.7917 178.862 27.3083 178.862 26.2208V18.6083L171.993 25.7375V26.2208C171.993 27.3083 172.115 27.7917 172.606 28.3958H167.576C168.067 27.7917 168.19 27.3083 168.19 26.2208V15.1042C168.19 14.0167 168.067 13.5333 167.576 12.9292H172.606C172.115 13.5333 171.993 14.0167 171.993 15.1042V22.7167L178.862 15.5875V15.1042V15.1042ZM174.569 8.21667C174.201 8.7 174.078 9.0625 174.078 9.425C174.078 9.90833 174.446 10.3917 175.428 10.3917C176.532 10.3917 176.9 9.90833 176.9 9.425C176.9 9.0625 176.777 8.7 176.409 8.21667H177.881C178.126 8.57917 178.494 9.18333 178.494 9.66667C178.494 10.875 177.39 11.6 175.428 11.6C173.465 11.6 172.361 10.875 172.361 9.66667C172.361 9.0625 172.729 8.45833 172.974 8.21667H174.569V8.21667ZM207.937 14.2583C206.587 12.8083 204.993 12.2042 203.152 12.2042C199.349 12.2042 197.264 15.1042 197.264 19.4542C197.264 23.8042 198.981 26.5833 203.275 26.5833C205.483 26.5833 207.323 25.4958 208.673 24.0458L209.654 25.8583C207.691 27.55 205.851 28.7583 202.171 28.7583C196.528 28.7583 192.848 25.375 192.848 19.575C192.848 14.3792 196.773 10.2708 202.662 10.2708C205.238 10.2708 206.342 10.7542 207.937 10.7542C208.673 10.7542 209.164 10.6333 209.9 10.2708L207.937 14.2583V14.2583ZM212.967 14.8625C211.372 14.8625 210.513 14.9833 209.409 15.5875L210.636 12.8083H225.112L223.885 15.5875C223.394 15.1042 222.903 14.8625 221.677 14.8625H219.1V26.2208C219.1 27.3083 219.223 27.7917 219.714 28.3958H214.684C215.175 27.7917 215.297 27.3083 215.297 26.2208V14.8625H212.967V14.8625ZM234.435 25.1333H227.442L227.074 25.9792C226.584 27.1875 226.461 27.55 226.952 28.3958H223.026C223.639 27.7917 224.13 27.0667 224.621 25.9792L229.773 14.2583C229.405 13.6542 229.16 13.4125 228.546 12.6875H233.208L238.974 25.8583C239.465 26.9458 239.833 27.55 240.569 28.275H234.926C235.416 27.3083 235.171 26.9458 234.803 25.8583L234.435 25.1333V25.1333ZM228.301 23.2H233.699L231.123 16.675L228.301 23.2ZM253.327 21.3875H246.457V26.2208C246.457 27.3083 246.58 27.7917 247.071 28.3958H242.041C242.532 27.7917 242.654 27.3083 242.654 26.2208V15.1042C242.654 14.0167 242.532 13.5333 242.041 12.9292H247.071C246.58 13.5333 246.457 14.0167 246.457 15.1042V19.3333H253.327V14.9833C253.327 13.8958 253.204 13.4125 252.714 12.8083H257.743C257.253 13.4125 257.13 13.8958 257.13 14.9833V26.1C257.13 27.1875 257.253 27.6708 257.743 28.275H252.714C253.204 27.6708 253.327 27.1875 253.327 26.1V21.3875V21.3875ZM273.814 24.7708C273.814 26.1 274.305 26.9458 275.777 27.3083V29.9667C274.182 28.7583 273.201 28.3958 271.483 28.3958H263.264C261.669 28.3958 260.565 28.8792 258.97 29.9667V27.3083C261.914 26.2208 262.405 24.1667 262.405 21.1458V14.9833C262.405 13.8958 262.283 13.4125 261.792 12.8083H274.305C273.814 13.4125 273.691 13.8958 273.691 14.9833L273.814 24.7708ZM264.981 21.5083C264.981 23.8042 264.736 25.2542 263.755 26.4625H269.152C269.766 26.4625 269.888 26.1 269.888 25.6167V14.7417H265.595C264.981 14.7417 264.859 15.1042 264.859 15.5875V21.5083H264.981V21.5083ZM288.167 25.1333H281.175L280.807 25.9792C280.316 27.1875 280.193 27.55 280.684 28.3958H276.758C277.372 27.7917 277.862 27.0667 278.353 25.9792L283.506 14.2583C283.138 13.6542 282.892 13.4125 282.279 12.6875H286.941L292.706 25.8583C293.197 26.9458 293.565 27.55 294.301 28.275H288.658C289.149 27.3083 288.903 26.9458 288.535 25.8583L288.167 25.1333V25.1333ZM282.033 23.2H287.431L284.855 16.675L282.033 23.2ZM301.907 12.9292C306.691 12.9292 309.145 14.7417 309.145 18.125C309.145 21.5083 306.323 23.6833 301.907 23.6833H299.944V26.2208C299.944 27.3083 300.067 27.7917 300.558 28.3958H295.528C296.019 27.7917 296.141 27.3083 296.141 26.2208V15.1042C296.141 14.0167 296.019 13.5333 295.528 12.9292H301.907V12.9292ZM299.822 14.7417V21.8708H301.294C303.87 21.8708 305.219 20.6625 305.219 18.125C305.219 15.7083 303.993 14.7417 301.294 14.7417H299.822V14.7417ZM312.948 14.8625C311.353 14.8625 310.494 14.9833 309.39 15.5875L310.617 12.8083H325.093L323.866 15.5875C323.375 15.1042 322.885 14.8625 321.658 14.8625H319.082V26.2208C319.082 27.3083 319.204 27.7917 319.695 28.3958H314.665C315.156 27.7917 315.279 27.3083 315.279 26.2208V14.8625H312.948V14.8625ZM327.669 11.7208H327.914C328.16 11.7208 328.405 11.6 328.405 11.3583C328.405 11.1167 328.283 10.9958 327.914 10.9958H327.669V11.7208V11.7208ZM327.669 12.8083H327.301V10.7542C327.546 10.7542 327.669 10.6333 328.037 10.6333C328.405 10.6333 328.528 10.7542 328.651 10.7542C328.773 10.875 328.896 10.9958 328.896 11.2375C328.896 11.4792 328.651 11.6 328.528 11.7208C328.773 11.8417 328.773 11.9625 328.896 12.2042C329.019 12.5667 329.019 12.6875 329.019 12.6875H328.651C328.528 12.5667 328.528 12.4458 328.528 12.2042C328.528 11.9625 328.283 11.8417 328.037 11.8417H327.792V12.8083H327.669V12.8083ZM328.037 10.15C327.178 10.15 326.442 10.875 326.442 11.7208C326.442 12.5667 327.178 13.2917 328.037 13.2917C328.896 13.2917 329.509 12.5667 329.509 11.7208C329.509 10.875 328.896 10.15 328.037 10.15ZM328.037 9.7875C329.141 9.7875 330 10.6333 330 11.7208C330 12.8083 329.141 13.6542 328.037 13.6542C326.933 13.6542 326.074 12.8083 326.074 11.7208C326.074 10.6333 326.933 9.7875 328.037 9.7875ZM29.8104 54.9792C15.0892 54.9792 3.06691 43.3792 3.06691 29C3.06691 14.6208 15.0892 3.02083 29.8104 3.02083C44.5316 3.02083 56.5539 14.6208 56.5539 29C56.5539 43.3792 44.6543 54.9792 29.8104 54.9792ZM29.8104 0C13.3717 0 0 12.9292 0 29C0 45.0708 13.3717 58 29.8104 58C46.2491 58 59.6208 45.0708 59.6208 29C59.7435 12.9292 46.3717 0 29.8104 0ZM36.4349 39.15C38.8885 41.6875 38.5204 46.5208 37.7844 48.8167C37.7844 48.9375 37.6617 49.1792 37.4164 49.3C36.0669 49.7833 34.3494 50.1458 33.4907 50.2667C37.171 46.8833 37.7844 42.05 36.4349 39.15V39.15ZM50.4201 36.25C47.1078 33.4708 43.0595 31.5375 39.3792 30.9333C43.3048 32.625 46.9851 36.4917 48.948 40.2375C49.316 39.6333 50.1747 38.3042 50.6654 36.8542C50.6654 36.4917 50.5427 36.25 50.4201 36.25V36.25ZM52.0149 29C52.0149 28.7583 51.8922 28.7583 51.8922 28.6375C49.5613 27.6708 48.0892 27.4292 48.0892 27.4292C48.7026 27.1875 49.1933 26.4625 49.1933 26.1C47.7212 26.825 46.0037 27.0667 44.8996 26.9458C46.9851 27.7917 49.9294 29.2417 51.8922 30.8125C52.0149 30.2083 52.0149 29.4833 52.0149 29V29ZM39.9926 36.7333C40.8513 36.975 41.9554 37.0958 42.6914 36.7333C39.0111 35.7667 36.9256 30.8125 28.7063 30.0875C28.3383 30.0875 27.4796 30.2083 27.9703 29.3625C28.461 28.6375 31.7732 26.4625 31.7732 26.4625C31.1598 26.4625 28.3383 26.7042 27.4796 26.825C26.6208 26.9458 26.4981 26.7042 26.3755 26.1C26.3755 26.1 24.658 27.6708 25.5167 28.3958C25.6394 28.5167 26.0074 28.5167 26.3755 28.3958L27.8476 27.9125C27.8476 27.9125 27.9703 27.9125 27.9703 28.0333C27.7249 28.275 27.3569 29.1208 27.2342 29.4833C27.1115 29.9667 26.9888 30.2083 27.8476 30.45C28.5836 30.6917 32.3866 31.9 34.7175 33.35C37.0483 34.9208 42.5688 39.0292 42.3234 46.8833C43.6729 46.0375 44.7769 45.0708 45.513 44.3458C45.6357 44.225 45.6357 43.9833 45.6357 43.8625C44.6543 41.5667 42.4461 38.3042 39.9926 36.7333V36.7333ZM48.5799 20.4208C48.2119 21.6292 47.4758 22.2333 46.9851 22.3542C46.2491 22.5958 45.513 22.3542 45.513 22.3542L44.8996 22.9583C44.6543 23.2 44.4089 23.0792 44.5316 22.8375C44.5316 22.7167 44.5316 22.475 44.4089 22.2333C44.1636 21.8708 43.9182 22.2333 43.6729 22.3542C43.3048 22.475 43.3048 21.9917 43.3048 21.9917C41.4647 21.6292 40.6059 22.475 40.6059 22.475C41.9554 22.5958 42.5688 23.4417 42.6914 23.8042C42.8141 24.1667 43.5502 24.1667 43.9182 23.925C44.0409 23.8042 44.2862 23.6833 44.2862 24.0458C44.2862 24.1667 44.2862 24.2875 44.1636 24.5292C44.7769 24.8917 44.8996 24.8917 44.7769 25.2542C44.0409 26.4625 43.4275 26.2208 43.3048 26.2208C40.7286 25.2542 38.2751 24.8917 36.803 24.8917L37.6617 24.0458C27.2342 24.0458 25.3941 25.2542 24.9033 25.9792C24.5353 26.4625 24.9033 27.1875 24.9033 27.1875C23.6766 27.4292 20.487 27.9125 19.1375 29.2417C17.9108 30.3292 17.7881 32.7458 17.6654 33.7125C18.2788 33.1083 19.0149 32.7458 19.6283 32.3833C21.1004 31.7792 22.6952 31.9 24.7807 31.9C25.6394 31.9 26.1301 32.2625 26.3755 32.7458C26.6208 33.2292 26.0074 33.2292 25.6394 32.9875C23.7993 31.9 23.1859 33.9542 21.223 33.35C21.8364 34.075 22.6952 34.075 23.1859 33.9542C25.1487 33.2292 25.6394 33.9542 25.6394 34.1958C24.4126 34.075 22.4498 34.9208 21.4684 35.0417C20.2416 35.2833 19.1375 35.2833 19.1375 35.2833C19.8736 36.25 21.1004 36.25 21.8364 36.25C22.6952 36.25 25.3941 36.0083 26.9888 36.25C31.1599 36.6125 31.4052 40.3583 28.9517 42.6542C30.9145 42.1708 31.6506 40.3583 31.6506 40.3583C33.1227 46.6417 27.2342 49.9042 22.3271 48.9375C19.9963 48.4542 18.1561 47.4875 16.8067 46.5208C15.8253 45.7958 14.9665 45.0708 14.7212 44.8292C17.9108 45.675 22.6952 45.675 26.0074 44.225C19.7509 44.3458 15.4572 42.775 12.513 41.2042C11.2862 40.6 11.0409 40.3583 10.5502 39.6333C9.56877 38.0625 8.95539 36.6125 8.46468 34.4375C10.9182 36.4917 16.0706 39.2708 18.6468 39.5125C12.145 35.7667 8.83271 30.45 8.58736 29.8458C8.34201 29.3625 7.8513 28.8792 7.8513 27.6708C7.97398 26.1 8.46468 23.8042 9.07807 22.2333C9.81413 24.4083 11.777 28.275 14.1078 30.2083C11.777 25.4958 11.4089 19.3333 11.5316 18.2458C11.5316 17.7625 11.6543 17.4 12.0223 16.7958C12.6357 15.95 13.9851 14.5 15.3346 13.2917C15.0892 14.9833 14.5985 18.4875 15.2119 21.75C16.0706 16.5542 18.1561 12.5667 19.5056 10.7542C19.7509 10.3917 19.9963 10.15 20.487 9.90833C21.1004 9.54583 22.9405 8.82083 25.026 8.3375C23.1859 9.54583 21.7138 11.9625 21.223 13.1708C27.3569 7.37083 33.2454 7.49167 36.6803 5.92083C37.4164 5.67917 37.7844 6.1625 37.6617 6.64583C37.539 7.12917 37.4164 8.09583 37.4164 8.09583C39.5019 8.57917 40.4833 9.54583 40.4833 9.54583C40.3606 9.30417 40.4833 8.82083 40.4833 8.82083C43.4275 11.3583 44.2862 13.2917 44.2862 14.7417C44.1636 16.1917 45.2677 16.9167 45.881 17.2792C46.4944 17.6417 48.8253 18.9708 49.316 19.3333C49.4387 19.4542 48.948 20.1792 48.5799 20.4208V20.4208ZM35.4535 7.49167C34.5948 7.975 33.7361 8.82083 33.1227 10.0292C33 10.2708 33.2454 10.5125 33.4907 10.2708C34.2268 9.90833 35.0855 9.66667 35.0855 9.66667C34.8401 9.0625 35.6989 7.975 36.0669 7.49167C36.1896 7.37083 36.0669 7.12917 35.4535 7.49167V7.49167ZM42.6914 13.5333C42.4461 15.1042 42.2007 14.9833 41.8327 14.8625C41.2193 14.6208 39.9926 14.5 39.5019 14.6208C40.7286 15.7083 41.5874 17.2792 41.5874 17.2792C41.71 16.7958 41.4647 15.95 41.2193 15.5875C41.0967 15.3458 41.2193 15.3458 41.4647 15.4667C41.5874 15.4667 41.9554 15.5875 42.2007 15.7083C42.6915 15.8292 42.6915 15.7083 42.8141 15.3458C42.8141 15.1042 42.9368 14.5 42.6914 13.5333V13.5333ZM27.4796 20.5417C27.7249 20.4208 28.5836 20.0583 29.0743 19.9375C29.0743 19.9375 28.5836 21.5083 28.7063 23.925C29.5651 23.8042 30.5465 23.6833 31.5279 23.6833C29.9331 23.0792 30.0558 20.1792 31.1598 18.7292C31.5279 18.2458 31.1599 18.2458 30.6691 18.3667C30.1784 18.4875 29.8104 18.6083 29.3197 18.85C29.3197 18.85 29.5651 14.9833 33 11.9625C29.8104 13.1708 27.3569 17.7625 27.4796 20.5417Z" fill="white"/>
</svg>
