<svg width="20" height="34" viewBox="0 0 20 34" fill="none" xmlns="http://www.w3.org/2000/svg">
<path d="M16 0H4C1.79 0 0 1.79 0 4V30C0 32.21 1.79 34 4 34H16C18.21 34 20 32.21 20 30V4C20 1.79 18.21 0 16 0ZM18 30C18 31.1 17.1 32 16 32H4C2.9 32 2 31.1 2 30V4C2 2.9 2.9 2 4 2H16C17.1 2 18 2.9 18 4V30Z" fill="#C41D39"/>
<path d="M15.5 25H4.5C4.22 25 4 25.22 4 25.5C4 25.78 4.22 26 4.5 26H15.5C15.78 26 16 25.78 16 25.5C16 25.22 15.78 25 15.5 25Z" fill="#C41D39"/>
<path d="M8.85 3.15C8.65 2.95 8.34 2.95 8.14 3.15L3.15 8.15C2.95 8.35 2.95 8.66 3.15 8.86C3.25 8.96 3.38 9.01 3.5 9.01C3.62 9.01 3.76 8.96 3.85 8.86L8.85 3.85C9.05 3.65 9.05 3.34 8.85 3.14V3.15Z" fill="#919497"/>
<path d="M3.50023 5.99999C3.63023 5.99999 3.76023 5.94999 3.85023 5.84999L5.85023 3.84999C6.05023 3.64999 6.05023 3.33999 5.85023 3.13999C5.65023 2.93999 5.34023 2.93999 5.14023 3.13999L3.14023 5.13999C2.94023 5.33999 2.94023 5.64999 3.14023 5.84999C3.24023 5.94999 3.37023 5.99999 3.49023 5.99999H3.50023Z" fill="#919497"/>
<path d="M11 28H9C8.45 28 8 28.45 8 29C8 29.55 8.45 30 9 30H11C11.55 30 12 29.55 12 29C12 28.45 11.55 28 11 28Z" fill="#C41D39"/>
</svg>
