<svg width="16" height="16" viewBox="0 0 16 16" fill="none" xmlns="http://www.w3.org/2000/svg">
<g clip-path="url(#clip0_50_53)">
<path d="M15.7065 14.3001L13.3753 11.9689C14.3644 10.6766 14.9062 9.10592 14.9062 7.45075C14.9062 5.45759 14.1308 3.58868 12.7242 2.17706C9.81645 -0.725702 5.08454 -0.725702 2.18178 2.18203C-0.725957 5.08977 -0.725957 9.8167 2.18178 12.7244C3.58843 14.1311 5.4623 14.9065 7.45547 14.9065C9.11064 14.9065 10.6813 14.3647 11.9736 13.3756L14.3048 15.7067C14.4986 15.9006 14.7521 16 15.0056 16C15.2591 16 15.5126 15.9006 15.7065 15.7067C16.0942 15.319 16.0942 14.6878 15.7065 14.3001ZM3.58346 11.3178C1.45112 9.18545 1.45112 5.71605 3.58346 3.58371C4.65211 2.52003 6.04882 1.98321 7.4505 1.98321C8.85217 1.98321 10.2489 2.51506 11.3175 3.58371C12.3862 4.65237 12.918 5.98943 12.918 7.45075C12.918 8.91208 12.3514 10.2839 11.3175 11.3178C10.2837 12.3517 8.91182 12.9183 7.4505 12.9183C5.98917 12.9183 4.61732 12.3517 3.58346 11.3178Z" fill="white"/>
</g>
<defs>
<clipPath id="clip0_50_53">
<rect width="16" height="16" fill="white"/>
</clipPath>
</defs>
</svg>
